<svg width="48" height="48" viewBox="0 0 48 48" fill="none" xmlns="http://www.w3.org/2000/svg">
<path d="M38.544 8.4H36.624C36.528 7.008 35.856 5.664 34.848 4.656C33.648 3.552 32.112 3.024 30.528 3.12C27.504 3.312 25.152 5.904 25.152 9.024V9.984C25.152 10.704 24.96 11.856 24.672 12.384L10.848 35.232L9.02401 37.968C8.44801 38.832 8.40001 39.984 8.88001 40.944C9.36001 41.904 10.368 42.48 11.424 42.48H14.352C15.792 42.48 16.944 41.472 17.184 40.08L17.76 36.72H21.744V42.96H19.824C19.296 42.96 18.864 43.392 18.864 43.92C18.864 44.448 19.296 44.88 19.824 44.88H32.304C32.832 44.88 33.264 44.448 33.264 43.92C33.264 43.392 32.832 42.96 32.304 42.96H28.464V35.856C33.648 34.272 36.624 30.528 36.624 25.152V10.272H38.544C39.072 10.272 39.504 9.84 39.504 9.312C39.504 8.832 39.072 8.4 38.544 8.4ZM15.264 39.744C15.168 40.224 14.784 40.56 14.304 40.56H11.376C10.848 40.56 10.608 40.224 10.512 40.032C10.416 39.888 10.272 39.456 10.56 39.072L12.144 36.72H15.792L15.264 39.744ZM26.544 42.96H23.664V36.672C24.672 36.624 25.632 36.528 26.544 36.336V42.96ZM34.704 25.2C34.704 33.888 25.968 34.8 22.224 34.8H13.344L15.312 31.488C15.936 31.584 17.28 31.728 18.912 31.728C21.648 31.728 25.248 31.248 27.792 29.28C32.064 25.968 32.256 20.208 32.256 19.536C32.256 17.76 33.216 16.176 34.656 15.216V25.2H34.704ZM34.704 13.104L34.272 13.344C31.92 14.544 30.432 16.944 30.384 19.584C30.384 21.6 29.568 25.584 26.688 27.792C23.664 30.144 18.576 29.904 16.416 29.712L26.256 13.344C26.784 12.432 27.024 10.944 27.024 9.984V9.024C27.024 6.912 28.608 5.184 30.624 5.04C31.68 4.992 32.736 5.328 33.504 6.048C34.272 6.768 34.704 7.776 34.704 8.832V13.104Z" fill="black"/>
<path d="M30.864 8.88C31.3942 8.88 31.824 8.45019 31.824 7.92C31.824 7.38981 31.3942 6.96 30.864 6.96C30.3338 6.96 29.904 7.38981 29.904 7.92C29.904 8.45019 30.3338 8.88 30.864 8.88Z" fill="black"/>
</svg>
