<svg width="23" height="23" viewBox="0 0 23 23" fill="none" xmlns="http://www.w3.org/2000/svg">
<g clip-path="url(#clip0)">
<path d="M6.6486 17.0397C5.64375 16.9883 5.66267 15.575 6.64856 15.5259C9.44126 15.5356 16.8072 15.5285 19.6888 15.5305C20.4769 15.5305 21.1512 14.9942 21.3284 14.2263L22.9646 7.14103C23.0583 6.73535 22.9638 6.31546 22.7052 5.98911C22.4467 5.66276 22.0597 5.47295 21.6434 5.47295C20.4842 5.47295 10.6444 5.42841 5.60451 5.40832L4.8056 2.44401C4.61382 1.73562 3.96736 1.24091 3.23349 1.24091H0.674186C0.301856 1.24091 0 1.54276 0 1.91509C0 2.28742 0.301856 2.58928 0.674186 2.58928H3.23349C3.35983 2.58928 3.47107 2.67445 3.50393 2.79567L6.57215 14.1794C6.03266 14.199 5.53017 14.4184 5.14912 14.805C4.74874 15.2113 4.53372 15.7491 4.54366 16.3194C4.56352 17.46 5.50779 18.388 6.6486 18.388H7.63165C7.48554 18.6947 7.40351 19.0376 7.40351 19.3993C7.40351 20.7005 8.46207 21.7591 9.76325 21.7591C11.0644 21.7591 12.123 20.7005 12.123 19.3993C12.123 19.0375 12.0409 18.6947 11.8948 18.388H16.1519C16.0059 18.6946 15.9239 19.0373 15.9239 19.399C15.9239 20.7001 16.9825 21.7587 18.2836 21.7587C19.5848 21.7587 20.6434 20.7001 20.6434 19.399C20.6434 19.0233 20.5547 18.668 20.3978 18.3524C20.6646 18.2625 20.857 18.0109 20.857 17.7138C20.857 17.3415 20.5551 17.0397 20.1828 17.0397H6.6486ZM10.7746 19.3994C10.7746 19.957 10.3209 20.4107 9.76321 20.4107C9.20552 20.4107 8.75184 19.957 8.75184 19.3994C8.75184 18.842 9.20507 18.3885 9.76235 18.388H9.76406C10.3213 18.3885 10.7746 18.842 10.7746 19.3994ZM18.2837 20.4104C17.726 20.4104 17.2723 19.9566 17.2723 19.399C17.2723 18.8468 17.7172 18.3969 18.2673 18.388H18.3001C18.8503 18.3969 19.2951 18.8468 19.2951 19.399C19.2951 19.9566 18.8414 20.4104 18.2837 20.4104ZM21.6483 6.82627C21.6523 6.83131 21.6517 6.83369 21.6509 6.83755L20.9614 9.82308H18.6269L19.0244 6.81068L21.638 6.82119C21.642 6.82128 21.6443 6.82128 21.6483 6.82627ZM14.6977 14.1821V11.1714H17.0889L16.6915 14.1821H14.6977ZM11.3545 14.1821L10.954 11.1714H13.3493V14.1821H11.3545ZM8.25087 14.1821H8.24876C8.08444 14.1821 7.93967 14.0712 7.89692 13.9133L7.15793 11.1714H9.59367L9.99423 14.1821H8.25087ZM10.7745 9.82312L10.3691 6.77584L13.3492 6.78784V9.82312H10.7745ZM14.6977 9.82312V6.79328L17.6651 6.80524L17.2668 9.82312H14.6977ZM9.00807 6.77031L9.41425 9.82308H6.79449L5.96839 6.75804L9.00807 6.77031ZM19.6888 14.1821H18.0516L18.4489 11.1714H20.65L20.0146 13.9229C19.9794 14.0755 19.8454 14.1821 19.6888 14.1821Z" fill="black"/>
</g>
<defs>
<clipPath id="clip0">
<rect width="23" height="23" fill="white"/>
</clipPath>
</defs>
</svg>
