<svg width="48" height="48" viewBox="0 0 48 48" fill="none" xmlns="http://www.w3.org/2000/svg">
<path d="M40.32 17.712V3.36C40.32 2.832 39.888 2.4 39.36 2.4C39.264 2.4 37.2 2.4 34.752 3.216C31.68 4.272 29.424 6.096 28.176 8.64C26.832 8.304 25.44 8.16 24 8.16C22.56 8.16 21.168 8.304 19.824 8.64C18.576 6.144 16.32 4.272 13.248 3.216C10.8 2.4 8.736 2.4 8.64 2.4C8.112 2.4 7.68 2.832 7.68 3.36V17.712C6.144 20.4 5.28 23.52 5.28 26.88C5.28 37.2 13.68 45.6 24 45.6C34.32 45.6 42.72 37.2 42.72 26.88C42.72 23.568 41.856 20.448 40.32 17.712ZM38.4 4.368V14.928C36.24 12.336 33.36 10.32 30.096 9.168C32.16 5.52 36.48 4.608 38.4 4.368ZM9.6 4.368C11.52 4.608 15.84 5.472 17.904 9.168C14.64 10.32 11.76 12.288 9.6 14.928V4.368ZM24 43.68C14.736 43.68 7.2 36.144 7.2 26.88C7.2 19.632 11.808 13.44 18.24 11.088V16.8C18.24 17.328 18.672 17.76 19.2 17.76C19.728 17.76 20.16 17.328 20.16 16.8V10.512C21.072 10.272 22.08 10.128 23.04 10.08V19.68C23.04 20.208 23.472 20.64 24 20.64C24.528 20.64 24.96 20.208 24.96 19.68V10.128C25.92 10.176 26.928 10.32 27.84 10.56V16.8C27.84 17.328 28.272 17.76 28.8 17.76C29.328 17.76 29.76 17.328 29.76 16.8V11.088C36.192 13.44 40.8 19.632 40.8 26.88C40.8 36.144 33.264 43.68 24 43.68ZM28.8 35.04C28.272 35.04 27.84 35.472 27.84 36C27.84 36.768 27.216 37.44 26.4 37.44C25.584 37.44 24.96 36.768 24.96 36V34.032C25.392 33.84 25.776 33.504 26.016 33.12L28.224 29.616C28.704 28.848 28.704 27.936 28.272 27.168C27.888 26.4 27.072 25.92 26.208 25.92H21.792C20.928 25.92 20.112 26.4 19.68 27.168C19.248 27.936 19.296 28.848 19.728 29.616L21.936 33.12C22.176 33.552 22.56 33.84 22.992 34.032V36C22.992 36.768 22.368 37.44 21.552 37.44C20.736 37.44 20.112 36.768 20.112 36C20.112 35.472 19.68 35.04 19.152 35.04C18.624 35.04 18.192 35.472 18.192 36C18.192 37.872 19.68 39.36 21.552 39.36C22.512 39.36 23.328 38.976 23.952 38.352C24.576 38.976 25.392 39.36 26.352 39.36C28.224 39.36 29.712 37.872 29.712 36C29.76 35.472 29.328 35.04 28.8 35.04ZM24 32.304C23.904 32.304 23.712 32.304 23.616 32.064L21.408 28.56C21.264 28.32 21.36 28.128 21.408 28.08C21.456 27.984 21.552 27.84 21.84 27.84H26.256C26.496 27.84 26.64 28.032 26.688 28.08C26.736 28.176 26.832 28.368 26.688 28.56L24.48 32.064C24.288 32.304 24.096 32.304 24 32.304ZM31.2 23.52C31.2 24.048 30.768 24.48 30.24 24.48C29.712 24.48 29.28 24.048 29.28 23.52C29.28 22.992 29.712 22.56 30.24 22.56C30.768 22.56 31.2 22.992 31.2 23.52ZM17.76 24.48C17.232 24.48 16.8 24.048 16.8 23.52C16.8 22.992 17.232 22.56 17.76 22.56C18.288 22.56 18.72 22.992 18.72 23.52C18.72 24.048 18.288 24.48 17.76 24.48Z" fill="black"/>
</svg>
