<svg width="48" height="48" viewBox="0 0 48 48" fill="none" xmlns="http://www.w3.org/2000/svg">
<path d="M17.28 17.76C15.408 17.76 13.92 19.248 13.92 21.12C13.92 22.992 15.408 24.48 17.28 24.48C19.152 24.48 20.64 22.992 20.64 21.12C20.64 19.248 19.152 17.76 17.28 17.76ZM17.28 22.56C16.464 22.56 15.84 21.936 15.84 21.12C15.84 20.304 16.464 19.68 17.28 19.68C18.096 19.68 18.72 20.304 18.72 21.12C18.72 21.936 18.096 22.56 17.28 22.56ZM30.72 17.76C28.848 17.76 27.36 19.248 27.36 21.12C27.36 22.992 28.848 24.48 30.72 24.48C32.592 24.48 34.08 22.992 34.08 21.12C34.08 19.248 32.592 17.76 30.72 17.76ZM30.72 22.56C29.904 22.56 29.28 21.936 29.28 21.12C29.28 20.304 29.904 19.68 30.72 19.68C31.536 19.68 32.16 20.304 32.16 21.12C32.16 21.936 31.536 22.56 30.72 22.56ZM38.832 6.912C36.912 6.912 35.136 7.728 33.888 9.072C31.104 6.864 27.6 5.616 24 5.616C20.256 5.616 16.848 6.912 14.112 9.12C12.816 7.728 11.04 6.912 9.11999 6.912C5.42399 6.912 2.39999 9.936 2.39999 13.68V20.784C2.39999 23.328 4.41599 25.44 6.91199 25.584C5.66399 27.024 4.99199 28.704 4.99199 30.432C4.99199 35.232 10.032 39.12 16.272 39.12C17.328 39.12 18.336 39.024 19.344 38.784C19.92 40.848 21.792 42.336 24 42.336C26.208 42.336 28.08 40.8 28.656 38.784C29.664 39.024 30.72 39.12 31.728 39.12C37.968 39.12 43.008 35.232 43.008 30.432C43.008 28.704 42.336 26.976 41.088 25.584C43.584 25.44 45.6 23.328 45.6 20.784V13.68C45.6 9.936 42.576 6.912 38.832 6.912ZM4.31999 20.784V13.68C4.31999 10.992 6.47999 8.832 9.16799 8.832C10.512 8.832 11.808 9.408 12.72 10.416C9.93599 13.248 8.20799 17.136 8.20799 21.408V23.664H7.19999C5.61599 23.664 4.31999 22.368 4.31999 20.784ZM24 40.464C22.656 40.464 21.504 39.504 21.168 38.256C22.176 37.872 23.136 37.392 24 36.768C24.816 37.344 25.776 37.872 26.832 38.256C26.496 39.504 25.344 40.464 24 40.464ZM24 32.4C22.56 32.4 21.36 31.344 21.12 29.952C22.848 28.752 25.152 28.752 26.88 29.952C26.688 31.296 25.44 32.4 24 32.4ZM31.728 37.2C30.528 37.2 29.28 37.008 28.128 36.672C26.928 36.288 25.824 35.76 24.96 35.04V34.176C27.168 33.744 28.848 31.776 28.848 29.424C28.848 29.136 28.704 28.848 28.512 28.704C25.92 26.544 22.128 26.544 19.536 28.704C19.296 28.896 19.2 29.136 19.2 29.424C19.2 31.776 20.88 33.696 23.088 34.176V35.04C22.176 35.712 21.12 36.288 19.92 36.672C18.768 37.008 17.568 37.2 16.32 37.2C11.184 37.2 6.95999 34.176 6.95999 30.432C6.95999 28.608 7.96799 26.88 9.79199 25.584C10.032 25.392 10.176 25.104 10.176 24.816V21.408C10.176 13.776 16.416 7.536 24.048 7.536C27.888 7.536 31.584 9.168 34.224 12C36.624 14.592 37.92 17.904 37.92 21.408V24.816C37.92 25.104 38.064 25.44 38.304 25.584C40.128 26.88 41.136 28.608 41.136 30.432C41.088 34.176 36.912 37.2 31.728 37.2ZM43.68 20.784C43.68 22.368 42.384 23.712 40.752 23.712H39.792V21.456C39.792 17.472 38.304 13.632 35.568 10.704C35.472 10.608 35.376 10.512 35.28 10.416C36.192 9.408 37.44 8.88 38.832 8.88C41.52 8.832 43.68 11.04 43.68 13.68V20.784Z" fill="black"/>
</svg>
