<svg width="48" height="48" viewBox="0 0 48 48" fill="none" xmlns="http://www.w3.org/2000/svg">
<path d="M45.216 27.456C44.112 26.64 43.488 25.344 43.488 24C43.488 22.656 44.112 21.36 45.216 20.544C45.456 20.352 45.6 20.064 45.6 19.776C45.6 19.488 45.456 19.2 45.216 19.008C44.112 18.192 42.816 17.76 41.472 17.76C38.592 17.76 36.192 19.68 35.424 22.368L35.376 22.32C34.416 21.408 33.888 20.352 33.888 19.248C33.888 17.664 34.992 16.128 36.864 15.072C37.104 14.928 37.296 14.688 37.344 14.352C37.392 14.064 37.296 13.776 37.056 13.536C33.888 10.416 29.568 8.736 24.96 8.736C19.872 8.736 15.312 10.848 12.288 14.16C11.712 14.544 11.136 14.928 10.608 15.456C9.16799 16.752 8.11199 18.432 7.48799 20.256C7.10399 21.408 6.47999 22.32 5.71199 22.896C4.99199 23.424 4.22399 23.712 3.45599 23.616C3.11999 23.568 2.78399 23.76 2.59199 24C2.39999 24.288 2.35199 24.624 2.49599 24.912C4.46399 29.568 8.35199 33.072 13.056 34.656C16.08 37.536 20.304 39.36 25.008 39.36C29.664 39.36 33.936 37.632 37.104 34.56C37.344 34.368 37.44 34.032 37.392 33.744C37.344 33.456 37.152 33.168 36.912 33.024C35.04 31.968 33.936 30.48 33.936 28.848C33.936 27.744 34.464 26.64 35.424 25.728C36.144 28.368 38.592 30.336 41.472 30.336C42.864 30.336 44.16 29.904 45.216 29.088C45.456 28.896 45.6 28.608 45.6 28.32C45.6 27.936 45.456 27.648 45.216 27.456ZM25.008 10.608C28.656 10.608 32.16 11.856 34.848 14.064C33.024 15.408 32.016 17.232 32.016 19.2C32.016 19.392 32.016 19.536 32.064 19.728L25.776 14.928C23.376 13.056 20.448 12.288 17.664 12.48C19.776 11.28 22.32 10.608 25.008 10.608ZM23.52 15.744V32.256C22.656 32.784 21.648 33.216 20.64 33.408V14.592C21.648 14.832 22.608 15.216 23.52 15.744ZM16.56 33.456C11.568 32.832 7.19999 29.76 4.79999 25.344C5.47199 25.2 6.14399 24.864 6.81599 24.384C7.91999 23.568 8.78399 22.368 9.26399 20.832C9.79199 19.296 10.656 17.952 11.856 16.848C13.776 15.12 16.224 14.304 18.672 14.352V33.648C17.952 33.648 17.28 33.6 16.56 33.504C16.608 33.504 16.56 33.504 16.56 33.456ZM34.848 33.936C32.16 36.144 28.656 37.392 25.008 37.392C22.32 37.392 19.776 36.72 17.568 35.568C17.856 35.568 18.144 35.616 18.48 35.616C19.008 35.616 19.584 35.568 20.112 35.52C22.08 35.232 23.952 34.464 25.488 33.264L32.016 28.272C32.016 28.464 31.968 28.656 31.968 28.848C32.016 30.72 33.024 32.544 34.848 33.936ZM25.44 30.816V17.088L34.416 24L25.44 30.816ZM43.056 28.032C42.576 28.224 42 28.32 41.472 28.32C39.072 28.32 37.104 26.352 37.104 23.952C37.104 21.552 39.072 19.584 41.472 19.584C42.048 19.584 42.576 19.68 43.056 19.872C42.096 20.976 41.568 22.416 41.568 23.904C41.568 25.488 42.096 26.928 43.056 28.032ZM14.112 20.448C14.304 20.64 14.4 20.88 14.4 21.12C14.4 21.168 14.4 21.264 14.4 21.312C14.4 21.36 14.352 21.408 14.352 21.504C14.352 21.552 14.304 21.6 14.256 21.648C14.208 21.696 14.208 21.744 14.16 21.792C13.92 21.984 13.68 22.08 13.44 22.08C13.2 22.08 12.96 21.984 12.768 21.792C12.72 21.744 12.672 21.696 12.672 21.648C12.624 21.6 12.624 21.552 12.576 21.504C12.528 21.456 12.528 21.408 12.528 21.312C12.528 21.264 12.528 21.168 12.528 21.12C12.528 20.88 12.624 20.64 12.816 20.448C13.104 20.064 13.776 20.064 14.112 20.448Z" fill="black"/>
</svg>
