<svg width="48" height="48" viewBox="0 0 48 48" fill="none" xmlns="http://www.w3.org/2000/svg">
<path d="M33.312 29.664C32.832 29.328 32.496 28.848 32.352 28.272C31.392 24.96 27.936 22.704 24 22.704C20.064 22.704 16.608 24.96 15.648 28.272C15.456 28.848 15.12 29.328 14.688 29.664C12.672 31.104 11.52 33.168 11.52 35.424C11.52 39.504 15.408 42.864 20.16 42.864C21.168 42.864 22.176 42.72 23.088 42.432C23.664 42.24 24.288 42.24 24.864 42.432C25.824 42.72 26.784 42.864 27.792 42.864C32.544 42.864 36.432 39.504 36.432 35.424C36.48 33.168 35.328 31.056 33.312 29.664ZM27.84 40.896C27.024 40.896 26.208 40.8 25.488 40.512C25.008 40.368 24.528 40.272 24 40.272C23.472 40.272 22.992 40.368 22.512 40.512C21.744 40.752 20.976 40.896 20.16 40.896C16.464 40.896 13.44 38.4 13.44 35.376C13.44 33.792 14.304 32.256 15.792 31.2C16.608 30.624 17.184 29.808 17.472 28.8C18.192 26.304 20.88 24.576 24 24.576C27.12 24.576 29.76 26.304 30.528 28.8C30.816 29.808 31.392 30.624 32.208 31.2C33.696 32.256 34.56 33.792 34.56 35.376C34.56 38.448 31.536 40.896 27.84 40.896Z" fill="black"/>
<path d="M14.4 21.504C14.4 18.336 12.24 15.744 9.59999 15.744C6.95999 15.744 4.79999 18.336 4.79999 21.504C4.79999 24.672 6.95999 27.264 9.59999 27.264C12.24 27.264 14.4 24.672 14.4 21.504ZM9.59999 25.344C8.01599 25.344 6.71999 23.616 6.71999 21.504C6.71999 19.392 8.01599 17.664 9.59999 17.664C11.184 17.664 12.48 19.392 12.48 21.504C12.48 23.616 11.184 25.344 9.59999 25.344Z" fill="black"/>
<path d="M38.4 15.744C35.76 15.744 33.6 18.336 33.6 21.504C33.6 24.672 35.76 27.264 38.4 27.264C41.04 27.264 43.2 24.672 43.2 21.504C43.2 18.336 41.04 15.744 38.4 15.744ZM38.4 25.344C36.816 25.344 35.52 23.616 35.52 21.504C35.52 19.392 36.816 17.664 38.4 17.664C39.984 17.664 41.28 19.392 41.28 21.504C41.28 23.616 39.984 25.344 38.4 25.344Z" fill="black"/>
<path d="M30.24 16.704C32.88 16.704 35.04 14.112 35.04 10.944C35.04 7.77597 32.88 5.18398 30.24 5.18398C27.6 5.18398 25.44 7.77597 25.44 10.944C25.44 14.112 27.6 16.704 30.24 16.704ZM30.24 7.10398C31.824 7.10398 33.12 8.83197 33.12 10.944C33.12 13.056 31.824 14.784 30.24 14.784C28.656 14.784 27.36 13.056 27.36 10.944C27.36 8.78397 28.656 7.10398 30.24 7.10398Z" fill="black"/>
<path d="M17.76 16.704C20.4 16.704 22.56 14.112 22.56 10.944C22.56 7.77597 20.4 5.18398 17.76 5.18398C15.12 5.18398 12.96 7.77597 12.96 10.944C12.96 14.112 15.12 16.704 17.76 16.704ZM17.76 7.10398C19.344 7.10398 20.64 8.83197 20.64 10.944C20.64 13.056 19.344 14.784 17.76 14.784C16.176 14.784 14.88 13.056 14.88 10.944C14.88 8.78397 16.176 7.10398 17.76 7.10398Z" fill="black"/>
</svg>
