<svg width="48" height="48" viewBox="0 0 48 48" fill="none" xmlns="http://www.w3.org/2000/svg">
<path d="M33.982 32.1057C33.0196 31.3941 32.3402 30.3861 32.0005 29.141C31.1513 26.0577 27.981 23.9231 24.3011 23.9231C20.6212 23.9231 17.5074 26.117 16.6016 29.141C16.2619 30.3861 15.5826 31.3941 14.6201 32.1057C12.8651 33.4101 11.8461 35.3075 11.8461 37.2643C11.8461 40.9998 15.4127 44.0831 19.772 44.0831C20.7344 44.0831 21.6968 43.9645 22.546 43.6087C23.1122 43.4308 23.6783 43.3123 24.3011 43.3123C24.9238 43.3123 25.49 43.4308 26.0561 43.6087C26.9619 43.9052 27.8677 44.0831 28.8302 44.0831C33.1894 44.0831 36.7561 40.9998 36.7561 37.2643C36.7561 35.3075 35.737 33.4101 33.982 32.1057Z" fill="#FEC912"/>
<path d="M9.15074 16.664C6.71382 16.664 4.71997 19.0566 4.71997 21.9809C4.71997 24.9052 6.71382 27.2978 9.15074 27.2978C11.5877 27.2978 13.5815 24.9052 13.5815 21.9809C13.5815 18.9902 11.5877 16.664 9.15074 16.664Z" fill="#FEC912"/>
<path d="M37.9508 16.664C35.5139 16.664 33.52 19.0566 33.52 21.9809C33.52 24.9052 35.5139 27.2978 37.9508 27.2978C40.3877 27.2978 42.3816 24.9052 42.3816 21.9809C42.3816 18.9902 40.3877 16.664 37.9508 16.664Z" fill="#FEC912"/>
<path d="M29.7908 16.7378C32.2277 16.7378 34.2215 14.3452 34.2215 11.4209C34.2215 8.49662 32.2277 6.104 29.7908 6.104C27.3538 6.104 25.36 8.49662 25.36 11.4209C25.36 14.3452 27.3538 16.7378 29.7908 16.7378Z" fill="#FEC912"/>
<path d="M17.3108 16.7378C19.7477 16.7378 21.7415 14.3452 21.7415 11.4209C21.7415 8.49662 19.7477 6.104 17.3108 6.104C14.8739 6.104 12.88 8.49662 12.88 11.4209C12.88 14.3452 14.8739 16.7378 17.3108 16.7378Z" fill="#FEC912"/>
</svg>
